# Blender v2.79 (sub 0) OBJ File: 'PhysicsCharacter.blend'
# www.blender.org
v -1.000000 0.919470 0.592519
v -1.000000 2.919470 0.592519
v -1.000000 0.919470 -0.592519
v -1.000000 2.919470 -0.592519
v 1.000000 0.919470 0.592519
v 1.000000 2.919470 0.592519
v 1.000000 0.919470 -0.592519
v 1.000000 2.919470 -0.592519
v -0.960645 -0.705808 0.370742
v -0.960645 0.741627 0.370742
v -0.960645 -0.705808 -0.370742
v -0.960645 0.741627 -0.370742
v -0.439355 -0.705808 0.370742
v -0.439355 0.741627 0.370742
v -0.439355 -0.705808 -0.370742
v -0.439355 0.741627 -0.370742
v 0.439355 -0.705808 0.370742
v 0.439355 0.741627 0.370742
v 0.439355 -0.705808 -0.370742
v 0.439355 0.741627 -0.370742
v 0.960645 -0.705808 0.370742
v 0.960645 0.741627 0.370742
v 0.960645 -0.705808 -0.370742
v 0.960645 0.741627 -0.370742
v -0.960645 -2.546274 0.370742
v -0.960645 -0.848065 0.370742
v -0.960645 -2.546274 -0.370742
v -0.960645 -0.848065 -0.370742
v -0.439355 -2.546274 0.370742
v -0.439355 -0.848065 0.370742
v -0.439355 -2.546274 -0.370742
v -0.439355 -0.848065 -0.370742
v 0.439355 -2.546274 0.370742
v 0.439355 -0.848065 0.370742
v 0.439355 -2.546274 -0.370742
v 0.439355 -0.848065 -0.370742
v 0.960645 -2.546274 0.370742
v 0.960645 -0.848065 0.370742
v 0.960645 -2.546274 -0.370742
v 0.960645 -0.848065 -0.370742
v -2.623718 2.878555 0.370742
v -1.176283 2.878555 0.370742
v -2.623718 2.878555 -0.370742
v -1.176283 2.878555 -0.370742
v -2.623718 2.357265 0.370742
v -1.176283 2.357265 0.370742
v -2.623718 2.357265 -0.370742
v -1.176283 2.357265 -0.370742
v -4.223718 2.878555 0.370742
v -2.776283 2.878555 0.370742
v -4.223718 2.878555 -0.370742
v -2.776283 2.878555 -0.370742
v -4.223718 2.357265 0.370742
v -2.776283 2.357265 0.370742
v -4.223718 2.357265 -0.370742
v -2.776283 2.357265 -0.370742
v 2.623718 2.878555 -0.370742
v 1.176282 2.878555 -0.370742
v 2.623718 2.878555 0.370742
v 1.176282 2.878555 0.370742
v 2.623718 2.357265 -0.370742
v 1.176282 2.357265 -0.370742
v 2.623718 2.357265 0.370742
v 1.176282 2.357265 0.370742
v 4.223718 2.878555 -0.370742
v 2.776283 2.878555 -0.370742
v 4.223718 2.878555 0.370742
v 2.776283 2.878555 0.370742
v 4.223718 2.357265 -0.370742
v 2.776283 2.357265 -0.370742
v 4.223718 2.357265 0.370742
v 2.776283 2.357265 0.370742
v -0.431957 3.083842 0.329232
v -0.431957 3.947757 0.329232
v -0.431957 3.083842 -0.329232
v -0.431957 3.947757 -0.329232
v 0.431957 3.083842 0.329232
v 0.431957 3.947757 0.329232
v 0.431957 3.083842 -0.329232
v 0.431957 3.947757 -0.329232
vn -1.0000 0.0000 0.0000
vn 0.0000 0.0000 -1.0000
vn 1.0000 0.0000 0.0000
vn 0.0000 0.0000 1.0000
vn 0.0000 -1.0000 0.0000
vn 0.0000 1.0000 0.0000
s off
f 2//1 3//1 1//1
f 4//2 7//2 3//2
f 8//3 5//3 7//3
f 6//4 1//4 5//4
f 7//5 1//5 3//5
f 4//6 6//6 8//6
f 10//1 11//1 9//1
f 12//2 15//2 11//2
f 16//3 13//3 15//3
f 14//4 9//4 13//4
f 15//5 9//5 11//5
f 12//6 14//6 16//6
f 18//1 19//1 17//1
f 20//2 23//2 19//2
f 24//3 21//3 23//3
f 22//4 17//4 21//4
f 23//5 17//5 19//5
f 20//6 22//6 24//6
f 26//1 27//1 25//1
f 28//2 31//2 27//2
f 32//3 29//3 31//3
f 30//4 25//4 29//4
f 31//5 25//5 27//5
f 28//6 30//6 32//6
f 34//1 35//1 33//1
f 36//2 39//2 35//2
f 40//3 37//3 39//3
f 38//4 33//4 37//4
f 39//5 33//5 35//5
f 36//6 38//6 40//6
f 42//6 43//6 41//6
f 43//2 48//2 47//2
f 48//5 45//5 47//5
f 46//4 41//4 45//4
f 47//1 41//1 43//1
f 44//3 46//3 48//3
f 50//6 51//6 49//6
f 51//2 56//2 55//2
f 56//5 53//5 55//5
f 54//4 49//4 53//4
f 55//1 49//1 51//1
f 52//3 54//3 56//3
f 58//6 59//6 57//6
f 59//4 64//4 63//4
f 63//5 62//5 61//5
f 62//2 57//2 61//2
f 63//3 57//3 59//3
f 60//1 62//1 64//1
f 66//6 67//6 65//6
f 67//4 72//4 71//4
f 72//5 69//5 71//5
f 70//2 65//2 69//2
f 71//3 65//3 67//3
f 68//1 70//1 72//1
f 74//1 75//1 73//1
f 76//2 79//2 75//2
f 80//3 77//3 79//3
f 78//4 73//4 77//4
f 79//5 73//5 75//5
f 76//6 78//6 80//6
f 2//1 4//1 3//1
f 4//2 8//2 7//2
f 8//3 6//3 5//3
f 6//4 2//4 1//4
f 7//5 5//5 1//5
f 4//6 2//6 6//6
f 10//1 12//1 11//1
f 12//2 16//2 15//2
f 16//3 14//3 13//3
f 14//4 10//4 9//4
f 15//5 13//5 9//5
f 12//6 10//6 14//6
f 18//1 20//1 19//1
f 20//2 24//2 23//2
f 24//3 22//3 21//3
f 22//4 18//4 17//4
f 23//5 21//5 17//5
f 20//6 18//6 22//6
f 26//1 28//1 27//1
f 28//2 32//2 31//2
f 32//3 30//3 29//3
f 30//4 26//4 25//4
f 31//5 29//5 25//5
f 28//6 26//6 30//6
f 34//1 36//1 35//1
f 36//2 40//2 39//2
f 40//3 38//3 37//3
f 38//4 34//4 33//4
f 39//5 37//5 33//5
f 36//6 34//6 38//6
f 42//6 44//6 43//6
f 43//2 44//2 48//2
f 48//5 46//5 45//5
f 46//4 42//4 41//4
f 47//1 45//1 41//1
f 44//3 42//3 46//3
f 50//6 52//6 51//6
f 51//2 52//2 56//2
f 56//5 54//5 53//5
f 54//4 50//4 49//4
f 55//1 53//1 49//1
f 52//3 50//3 54//3
f 58//6 60//6 59//6
f 59//4 60//4 64//4
f 63//5 64//5 62//5
f 62//2 58//2 57//2
f 63//3 61//3 57//3
f 60//1 58//1 62//1
f 66//6 68//6 67//6
f 67//4 68//4 72//4
f 72//5 70//5 69//5
f 70//2 66//2 65//2
f 71//3 69//3 65//3
f 68//1 66//1 70//1
f 74//1 76//1 75//1
f 76//2 80//2 79//2
f 80//3 78//3 77//3
f 78//4 74//4 73//4
f 79//5 77//5 73//5
f 76//6 74//6 78//6
