# Blender v2.80 (sub 75) OBJ File: ''
# www.blender.org
v 0.158174 -0.356967 -3.928320
v 0.158174 0.368234 -3.928320
v 0.682276 -0.721479 4.385889
v 0.682276 -0.578782 4.385889
v -0.158174 -0.356967 -3.928320
v -0.158174 0.368234 -3.928320
v -0.682276 -0.721479 4.385889
v -0.682276 -0.578782 4.385889
v 1.000000 -0.613436 2.451779
v 0.662295 0.343383 2.451779
v -1.000000 -0.613436 2.451779
v -0.662295 0.343383 2.451779
v 0.941960 -0.505925 0.843552
v 0.883920 -0.465717 -0.764676
v -0.941960 0.603547 0.843552
v -0.883920 0.434220 -0.764676
v 0.883920 0.434220 -0.764676
v 0.941960 0.603547 0.843552
v -0.883920 -0.465717 -0.764676
v -0.941960 -0.505925 0.843552
v 5.135778 -0.806363 0.692199
v 5.077739 -0.798213 -0.916028
v -5.135778 -0.489464 0.692199
v -5.077739 -0.523787 -0.916028
v 5.077739 -0.523788 -0.916028
v 5.135778 -0.489464 0.692199
v -5.077739 -0.798213 -0.916028
v -5.135778 -0.806363 0.692199
v 0.081961 -0.356967 -4.504061
v 0.158174 0.368234 -4.504061
v -0.158174 0.368234 -4.504061
v -0.081961 -0.356967 -4.504061
v -0.060343 1.221205 -4.293079
v 0.060343 1.221205 -4.293079
v -0.060343 1.221205 -4.504061
v 0.060343 1.221205 -4.504061
vn 0.9868 0.0000 0.1621
vn 0.0000 0.0000 1.0000
vn -0.9747 0.0000 -0.2236
vn -0.9935 0.1139 0.0000
vn 0.0000 -0.9994 -0.0344
vn 0.0000 0.9998 -0.0209
vn 0.0000 0.9027 0.4304
vn 0.0000 -0.9984 -0.0558
vn -0.9868 0.0000 0.1621
vn 0.9429 0.3328 -0.0118
vn 0.9747 -0.0000 -0.2236
vn 0.0361 0.0000 0.9993
vn 0.0000 0.9872 0.1597
vn 0.0000 0.9945 -0.1047
vn 0.0000 -0.9978 -0.0667
vn 0.0000 -0.9997 -0.0250
vn -0.9429 0.3328 -0.0118
vn 0.0361 0.0000 -0.9993
vn 0.9993 0.0000 -0.0361
vn -0.9993 0.0000 -0.0361
vn 0.0798 -0.9966 -0.0220
vn 0.2216 0.9747 -0.0288
vn -0.0361 0.0000 0.9993
vn -0.2469 0.9627 -0.1103
vn -0.0715 -0.9974 -0.0025
vn -0.0361 0.0000 -0.9993
vn 0.0000 0.0000 -1.0000
vn -0.9860 -0.1036 -0.1305
vn 1.0000 0.0000 0.0000
vn 0.0000 -1.0000 0.0000
vn 0.0000 1.0000 0.0000
vn 0.0000 0.3932 0.9195
vn 0.9935 0.1139 0.0000
vn 0.9327 0.3292 0.1473
vn -0.9327 0.3292 0.1473
vn 0.9852 0.0000 0.1713
vn -0.9852 0.0000 0.1713
vn 0.0715 -0.9974 -0.0025
vn 0.2469 0.9627 -0.1103
vn -0.2216 0.9747 -0.0288
vn -0.0798 -0.9966 -0.0220
vn -1.0000 0.0000 0.0000
vn 0.9860 -0.1036 -0.1305
s off
f 9//1 4//1 3//1
f 4//2 7//2 3//2
f 16//3 5//3 19//3
f 31//4 33//4 35//4
f 19//5 1//5 14//5
f 17//6 6//6 16//6
f 4//7 12//7 8//7
f 7//8 9//8 3//8
f 8//9 11//9 7//9
f 13//10 10//10 9//10
f 1//11 17//11 14//11
f 13//12 26//12 18//12
f 10//13 15//13 12//13
f 18//14 16//14 15//14
f 11//15 13//15 9//15
f 20//16 14//16 13//16
f 12//17 20//17 11//17
f 19//18 24//18 16//18
f 25//19 21//19 22//19
f 28//20 24//20 27//20
f 20//21 27//21 19//21
f 17//22 26//22 25//22
f 20//23 23//23 28//23
f 16//24 23//24 15//24
f 13//25 22//25 21//25
f 14//26 25//26 22//26
f 31//27 29//27 32//27
f 5//28 31//28 32//28
f 1//29 30//29 2//29
f 5//30 29//30 1//30
f 34//31 35//31 33//31
f 6//32 34//32 33//32
f 31//27 36//27 30//27
f 30//33 34//33 2//33
f 9//34 10//34 4//34
f 4//2 8//2 7//2
f 16//3 6//3 5//3
f 31//4 6//4 33//4
f 19//5 5//5 1//5
f 17//6 2//6 6//6
f 4//7 10//7 12//7
f 7//8 11//8 9//8
f 8//35 12//35 11//35
f 13//36 18//36 10//36
f 1//11 2//11 17//11
f 13//12 21//12 26//12
f 10//13 18//13 15//13
f 18//14 17//14 16//14
f 11//15 20//15 13//15
f 20//16 19//16 14//16
f 12//37 15//37 20//37
f 19//18 27//18 24//18
f 25//19 26//19 21//19
f 28//20 23//20 24//20
f 20//38 28//38 27//38
f 17//39 18//39 26//39
f 20//23 15//23 23//23
f 16//40 24//40 23//40
f 13//41 14//41 22//41
f 14//26 17//26 25//26
f 31//27 30//27 29//27
f 5//42 6//42 31//42
f 1//43 29//43 30//43
f 5//30 32//30 29//30
f 34//31 36//31 35//31
f 6//32 2//32 34//32
f 31//27 35//27 36//27
f 30//33 36//33 34//33
